<svg width="16" height="16" viewBox="0 0 20 20" fill="none" xmlns="http://www.w3.org/2000/svg"><path d="M20.0004 7.39266V1.19517C20.0004 0.530115 19.4608 0 18.8057 0H12.6111C11.6381 0 10.6747 0.192761 9.7787 0.559021C8.88275 0.934919 8.06387 1.47468 7.37986 2.16864L7.33169 2.21683C6.42609 3.13248 5.78062 4.26981 5.45306 5.5228C6.04074 5.36859 6.64765 5.29148 7.25459 5.28184C8.87309 5.26256 10.4627 5.78304 11.7537 6.75652C12.9194 7.62398 13.8057 8.81914 14.2874 10.1974C14.7883 11.595 14.8461 13.1179 14.4704 14.554C15.7132 14.2263 16.8597 13.5805 17.7749 12.6745L17.8231 12.6263C18.5071 11.942 19.0562 11.1227 19.4319 10.2263C19.8076 9.32998 19.9907 8.36613 19.9907 7.39266H20.0004Z" fill="#18E299"/><path d="M5.2682 7.28808C5.27779 5.38687 6.036 3.56247 7.37008 2.19897L2.21611 7.35529C2.19691 7.3745 2.17771 7.3841 2.15851 7.4033C0.90122 8.65158 0.143023 10.3223 0.0182531 12.0891C-0.0969189 13.7407 0.334967 15.373 1.25634 16.7365C1.34423 16.8666 1.58269 16.9094 1.71706 16.7845L4.87468 13.6351C5.86324 12.6461 6.17038 11.1769 5.70009 9.86144C5.40256 9.04526 5.2586 8.17148 5.2682 7.28808Z" fill="#0C8C5E"/><path d="M17.793 12.627C16.8044 13.5968 15.5663 14.2689 14.2226 14.5666C12.8693 14.8642 11.4681 14.7778 10.1628 14.3169C10.1628 14.3169 10.1532 14.3169 10.1436 14.3169C8.82871 13.8464 7.36029 14.1537 6.37173 15.1331L3.21406 18.2826C3.07969 18.417 3.09889 18.6379 3.26205 18.7435C4.62492 19.6557 6.25656 20.0974 7.90736 19.9822C9.67333 19.8573 11.3337 19.0988 12.591 17.8409L12.639 17.7929L17.793 12.6366V12.627Z" fill="#0C8C5E"/></svg>